# xmcd
#
# Track frame offsets: 
#        150
#        9858
#        20204
#        31152
#        42982
#        56494
#        69243
#        81100
#        91932
#        105936
#
# Disc length: 1581 seconds
#
# Revision: 0
# Processed by: cddbd v1.5.2PL0 Copyright (c) Steve Scherf et al.
# Submitted via: ExactAudioCopy v1.0b3
#
DISCID=6a062b0a
DTITLE=Etta James - Etta James
DYEAR=1962
DGENRE=Blues
TTITLE0=Waiting For Charlie To Come Home
TTITLE1=Guess Again
TTITLE2=A Lover's Mourn
TTITLE3=You Can Count On Me
TTITLE4=If I Can't Have You
TTITLE5=Somthing's Got A Hold On Me
TTITLE6=My Dear
TTITLE7=Nobody But You
TTITLE8=Let Me Know
TTITLE9=Spoonful
EXTD=
EXTT0=
EXTT1=
EXTT2=
EXTT3=
EXTT4=
EXTT5=
EXTT6=
EXTT7=
EXTT8=
EXTT9=
PLAYORDER=
